<svg width="3394" height="212" viewBox="0 0 3394 212" fill="none" xmlns="http://www.w3.org/2000/svg">
<g filter="url(#filter0_d_64_107)">
<path d="M0 0H3394V207H0V0Z" fill="#111212"/>
<path d="M3394 206.5H0V207.5H3394V206.5Z" fill="#838383"/>
</g>
<path d="M1500.52 173V170.136L1509.38 160.957C1510.32 159.96 1511.1 159.087 1511.72 158.337C1512.34 157.578 1512.8 156.858 1513.11 156.176C1513.42 155.494 1513.57 154.77 1513.57 154.003C1513.57 153.134 1513.37 152.384 1512.96 151.753C1512.55 151.114 1511.99 150.624 1511.28 150.283C1510.58 149.933 1509.78 149.759 1508.89 149.759C1507.95 149.759 1507.14 149.95 1506.44 150.334C1505.74 150.717 1505.2 151.259 1504.83 151.957C1504.45 152.656 1504.26 153.474 1504.26 154.412H1500.49C1500.49 152.818 1500.86 151.425 1501.59 150.232C1502.33 149.038 1503.33 148.114 1504.61 147.457C1505.89 146.793 1507.34 146.46 1508.97 146.46C1510.61 146.46 1512.06 146.788 1513.32 147.445C1514.58 148.092 1515.56 148.979 1516.27 150.104C1516.98 151.22 1517.33 152.482 1517.33 153.888C1517.33 154.859 1517.15 155.81 1516.78 156.739C1516.42 157.668 1515.8 158.703 1514.9 159.845C1514.01 160.979 1512.76 162.355 1511.17 163.974L1505.96 169.42V169.612H1517.75V173H1500.52ZM1522.6 173V170.136L1531.46 160.957C1532.4 159.96 1533.18 159.087 1533.8 158.337C1534.42 157.578 1534.88 156.858 1535.19 156.176C1535.5 155.494 1535.65 154.77 1535.65 154.003C1535.65 153.134 1535.44 152.384 1535.04 151.753C1534.63 151.114 1534.07 150.624 1533.36 150.283C1532.65 149.933 1531.86 149.759 1530.97 149.759C1530.03 149.759 1529.21 149.95 1528.52 150.334C1527.82 150.717 1527.28 151.259 1526.9 151.957C1526.53 152.656 1526.34 153.474 1526.34 154.412H1522.57C1522.57 152.818 1522.94 151.425 1523.67 150.232C1524.4 149.038 1525.41 148.114 1526.69 147.457C1527.97 146.793 1529.42 146.46 1531.05 146.46C1532.69 146.46 1534.14 146.788 1535.39 147.445C1536.65 148.092 1537.64 148.979 1538.35 150.104C1539.05 151.22 1539.41 152.482 1539.41 153.888C1539.41 154.859 1539.22 155.81 1538.86 156.739C1538.5 157.668 1537.87 158.703 1536.98 159.845C1536.08 160.979 1534.84 162.355 1533.25 163.974L1528.04 169.42V169.612H1539.83V173H1522.6ZM1545.03 146.818H1549.83L1558.16 167.17H1558.47L1566.8 146.818H1571.6V173H1567.84V154.054H1567.6L1559.88 172.962H1556.76L1549.03 154.041H1548.79V173H1545.03V146.818ZM1577.34 173V146.818H1586.93C1588.79 146.818 1590.33 147.125 1591.54 147.739C1592.76 148.344 1593.68 149.166 1594.28 150.206C1594.89 151.237 1595.19 152.401 1595.19 153.696C1595.19 154.787 1594.99 155.707 1594.59 156.457C1594.19 157.199 1593.65 157.795 1592.98 158.247C1592.31 158.69 1591.58 159.014 1590.78 159.219V159.474C1591.65 159.517 1592.49 159.798 1593.32 160.318C1594.16 160.83 1594.85 161.558 1595.39 162.504C1595.94 163.45 1596.21 164.601 1596.21 165.956C1596.21 167.294 1595.9 168.496 1595.26 169.561C1594.64 170.618 1593.68 171.457 1592.38 172.08C1591.07 172.693 1589.41 173 1587.38 173H1577.34ZM1581.29 169.612H1586.99C1588.89 169.612 1590.24 169.246 1591.06 168.513C1591.88 167.78 1592.29 166.864 1592.29 165.764C1592.29 164.937 1592.08 164.179 1591.66 163.489C1591.24 162.798 1590.65 162.249 1589.87 161.839C1589.1 161.43 1588.19 161.226 1587.13 161.226H1581.29V169.612ZM1581.29 158.145H1586.58C1587.47 158.145 1588.27 157.974 1588.97 157.634C1589.69 157.293 1590.26 156.815 1590.68 156.202C1591.1 155.58 1591.31 154.847 1591.31 154.003C1591.31 152.92 1590.94 152.013 1590.18 151.28C1589.42 150.547 1588.25 150.18 1586.69 150.18H1581.29V158.145ZM1633.49 166.033V153.364H1635.05V173H1633.49V169.817H1633.36C1632.9 170.831 1632.15 171.658 1631.12 172.297C1630.1 172.936 1628.89 173.256 1627.49 173.256C1626.2 173.256 1625.07 172.974 1624.08 172.412C1623.09 171.849 1622.31 171.053 1621.75 170.021C1621.19 168.982 1620.91 167.746 1620.91 166.314V153.364H1622.47V166.25C1622.47 167.886 1622.96 169.212 1623.95 170.226C1624.95 171.232 1626.23 171.734 1627.81 171.734C1628.83 171.734 1629.77 171.504 1630.63 171.044C1631.5 170.584 1632.19 169.928 1632.71 169.075C1633.23 168.214 1633.49 167.2 1633.49 166.033ZM1653.99 157.595L1652.54 157.979C1652.31 157.263 1651.98 156.645 1651.56 156.125C1651.13 155.605 1650.59 155.205 1649.95 154.923C1649.31 154.634 1648.54 154.489 1647.64 154.489C1646.2 154.489 1645.02 154.847 1644.1 155.562C1643.19 156.278 1642.74 157.212 1642.74 158.362C1642.74 159.3 1643.05 160.075 1643.67 160.689C1644.29 161.294 1645.24 161.754 1646.52 162.07L1649.54 162.824C1651.09 163.207 1652.25 163.83 1653.04 164.69C1653.82 165.543 1654.22 166.604 1654.22 167.874C1654.22 168.956 1653.92 169.915 1653.33 170.75C1652.75 171.585 1651.93 172.237 1650.89 172.706C1649.86 173.175 1648.66 173.409 1647.29 173.409C1645.45 173.409 1643.95 172.983 1642.77 172.131C1641.6 171.27 1640.84 170.038 1640.51 168.436L1642.01 168.053C1642.29 169.331 1642.87 170.307 1643.76 170.98C1644.65 171.645 1645.82 171.977 1647.27 171.977C1648.88 171.977 1650.17 171.598 1651.15 170.839C1652.14 170.081 1652.63 169.109 1652.63 167.925C1652.63 167.021 1652.34 166.259 1651.76 165.636C1651.18 165.014 1650.3 164.558 1649.13 164.268L1646 163.501C1644.39 163.109 1643.19 162.483 1642.39 161.622C1641.59 160.753 1641.19 159.683 1641.19 158.413C1641.19 157.357 1641.47 156.428 1642.02 155.626C1642.57 154.825 1643.34 154.199 1644.31 153.747C1645.28 153.295 1646.39 153.07 1647.64 153.07C1649.31 153.07 1650.66 153.462 1651.71 154.246C1652.76 155.03 1653.52 156.146 1653.99 157.595ZM1667.27 173.409C1665.5 173.409 1663.96 172.97 1662.64 172.092C1661.33 171.214 1660.32 170.013 1659.6 168.487C1658.88 166.962 1658.53 165.223 1658.53 163.271C1658.53 161.311 1658.88 159.564 1659.6 158.03C1660.32 156.496 1661.32 155.286 1662.58 154.399C1663.84 153.513 1665.28 153.07 1666.9 153.07C1668 153.07 1669.04 153.291 1670.02 153.734C1671.01 154.169 1671.88 154.8 1672.63 155.626C1673.39 156.453 1673.98 157.45 1674.4 158.618C1674.84 159.786 1675.06 161.098 1675.06 162.555V163.527H1659.51V162.108H1673.5C1673.5 160.685 1673.21 159.402 1672.63 158.26C1672.05 157.118 1671.26 156.21 1670.26 155.537C1669.27 154.864 1668.14 154.527 1666.9 154.527C1665.6 154.527 1664.43 154.893 1663.41 155.626C1662.4 156.351 1661.59 157.331 1660.99 158.567C1660.41 159.803 1660.1 161.183 1660.07 162.709V163.348C1660.07 164.984 1660.36 166.455 1660.93 167.759C1661.51 169.054 1662.34 170.081 1663.41 170.839C1664.48 171.589 1665.77 171.964 1667.27 171.964C1668.34 171.964 1669.26 171.786 1670.02 171.428C1670.79 171.061 1671.41 170.618 1671.9 170.098C1672.38 169.578 1672.75 169.075 1673 168.589L1674.42 169.165C1674.12 169.821 1673.65 170.477 1673.02 171.134C1672.4 171.781 1671.61 172.322 1670.65 172.757C1669.69 173.192 1668.57 173.409 1667.27 173.409ZM1687.16 173.409C1685.59 173.409 1684.21 172.974 1683.03 172.105C1681.86 171.236 1680.95 170.038 1680.3 168.513C1679.66 166.979 1679.34 165.219 1679.34 163.233C1679.34 161.264 1679.66 159.517 1680.31 157.991C1680.97 156.457 1681.88 155.256 1683.06 154.386C1684.24 153.509 1685.61 153.07 1687.18 153.07C1688.3 153.07 1689.28 153.287 1690.1 153.722C1690.94 154.148 1691.64 154.714 1692.2 155.422C1692.77 156.129 1693.21 156.905 1693.5 157.749H1693.66V146.818H1695.2V173H1693.7V168.717H1693.5C1693.19 169.561 1692.75 170.341 1692.19 171.057C1691.62 171.764 1690.93 172.335 1690.09 172.77C1689.26 173.196 1688.28 173.409 1687.16 173.409ZM1687.3 171.964C1688.63 171.964 1689.77 171.585 1690.72 170.827C1691.67 170.06 1692.4 169.02 1692.9 167.707C1693.41 166.386 1693.67 164.891 1693.67 163.22C1693.67 161.55 1693.41 160.062 1692.9 158.759C1692.4 157.446 1691.67 156.415 1690.72 155.665C1689.77 154.906 1688.63 154.527 1687.3 154.527C1685.96 154.527 1684.8 154.911 1683.84 155.678C1682.88 156.436 1682.15 157.472 1681.64 158.784C1681.14 160.097 1680.89 161.575 1680.89 163.22C1680.89 164.865 1681.14 166.348 1681.64 167.669C1682.15 168.99 1682.88 170.038 1683.84 170.814C1684.8 171.581 1685.96 171.964 1687.3 171.964ZM1719.76 153.364V154.757H1711.06V153.364H1719.76ZM1713.92 173V150.308C1713.92 149.32 1714.15 148.476 1714.6 147.777C1715.05 147.078 1715.64 146.545 1716.37 146.179C1717.12 145.812 1717.91 145.629 1718.77 145.629C1719.22 145.629 1719.6 145.668 1719.92 145.744C1720.24 145.812 1720.52 145.893 1720.76 145.987L1720.3 147.368C1720.1 147.3 1719.89 147.24 1719.66 147.189C1719.44 147.138 1719.17 147.112 1718.87 147.112C1717.88 147.112 1717.06 147.415 1716.43 148.02C1715.79 148.625 1715.47 149.469 1715.47 150.551L1715.45 173H1713.92ZM1724.62 173V153.364H1726.14V156.432H1726.28C1726.71 155.426 1727.43 154.621 1728.44 154.016C1729.45 153.402 1730.61 153.095 1731.9 153.095C1732.04 153.095 1732.18 153.095 1732.31 153.095C1732.45 153.095 1732.58 153.099 1732.7 153.108V154.68C1732.59 154.672 1732.47 154.659 1732.33 154.642C1732.19 154.616 1732.02 154.604 1731.81 154.604C1730.72 154.604 1729.75 154.838 1728.9 155.307C1728.06 155.776 1727.39 156.423 1726.91 157.25C1726.42 158.068 1726.18 159.006 1726.18 160.062V173H1724.62ZM1743.59 173.409C1741.97 173.409 1740.53 172.974 1739.27 172.105C1738.01 171.227 1737.01 170.021 1736.29 168.487C1735.56 166.953 1735.2 165.206 1735.2 163.246C1735.2 161.277 1735.56 159.53 1736.29 158.004C1737.01 156.47 1738.01 155.264 1739.27 154.386C1740.53 153.509 1741.97 153.07 1743.59 153.07C1745.21 153.07 1746.65 153.509 1747.91 154.386C1749.17 155.264 1750.16 156.47 1750.89 158.004C1751.61 159.538 1751.98 161.286 1751.98 163.246C1751.98 165.206 1751.61 166.953 1750.89 168.487C1750.16 170.021 1749.17 171.227 1747.91 172.105C1746.65 172.974 1745.21 173.409 1743.59 173.409ZM1743.59 171.964C1744.96 171.964 1746.16 171.577 1747.18 170.801C1748.21 170.026 1749.01 168.977 1749.57 167.656C1750.14 166.335 1750.43 164.865 1750.43 163.246C1750.43 161.626 1750.14 160.161 1749.57 158.848C1749 157.527 1748.2 156.479 1747.18 155.703C1746.16 154.919 1744.96 154.527 1743.59 154.527C1742.22 154.527 1741.02 154.919 1740 155.703C1738.97 156.479 1738.18 157.527 1737.61 158.848C1737.03 160.161 1736.75 161.626 1736.75 163.246C1736.75 164.865 1737.03 166.335 1737.59 167.656C1738.16 168.977 1738.96 170.026 1739.98 170.801C1741.01 171.577 1742.22 171.964 1743.59 171.964ZM1757.35 173V153.364H1758.87V156.33H1759.02C1759.4 155.341 1760.05 154.557 1760.97 153.977C1761.89 153.398 1762.99 153.108 1764.29 153.108C1765.71 153.108 1766.86 153.449 1767.73 154.131C1768.61 154.812 1769.24 155.737 1769.62 156.905H1769.76C1770.14 155.754 1770.83 154.834 1771.82 154.143C1772.82 153.453 1774.04 153.108 1775.5 153.108C1777.4 153.108 1778.85 153.709 1779.85 154.911C1780.85 156.104 1781.36 157.74 1781.36 159.82V173H1779.8V159.82C1779.8 158.183 1779.4 156.896 1778.62 155.959C1777.84 155.021 1776.69 154.553 1775.17 154.553C1773.55 154.553 1772.31 155.06 1771.44 156.074C1770.57 157.088 1770.13 158.379 1770.13 159.947V173H1768.57V159.717C1768.57 158.192 1768.19 156.952 1767.42 155.997C1766.65 155.034 1765.5 154.553 1763.97 154.553C1762.93 154.553 1762.03 154.791 1761.27 155.268C1760.52 155.746 1759.94 156.402 1759.52 157.237C1759.11 158.072 1758.91 159.031 1758.91 160.114V173H1757.35ZM1805.28 173.358C1803.68 173.358 1802.24 173.051 1800.96 172.438C1799.69 171.815 1798.68 170.963 1797.92 169.881C1797.16 168.798 1796.75 167.562 1796.7 166.173H1800.54C1800.63 167.298 1801.13 168.223 1802.03 168.947C1802.94 169.672 1804.02 170.034 1805.28 170.034C1806.29 170.034 1807.18 169.804 1807.95 169.344C1808.74 168.875 1809.35 168.232 1809.79 167.413C1810.25 166.595 1810.47 165.662 1810.47 164.614C1810.47 163.548 1810.24 162.598 1809.78 161.763C1809.32 160.928 1808.69 160.271 1807.88 159.794C1807.08 159.317 1806.16 159.074 1805.12 159.065C1804.32 159.065 1803.53 159.202 1802.72 159.474C1801.92 159.747 1801.28 160.105 1800.78 160.548L1797.16 160.011L1798.63 146.818H1813.03V150.206H1801.92L1801.09 157.531H1801.24C1801.75 157.037 1802.43 156.624 1803.27 156.291C1804.13 155.959 1805.04 155.793 1806.01 155.793C1807.6 155.793 1809.02 156.172 1810.27 156.93C1811.52 157.689 1812.5 158.724 1813.22 160.037C1813.94 161.341 1814.3 162.841 1814.29 164.537C1814.3 166.233 1813.92 167.746 1813.14 169.075C1812.38 170.405 1811.31 171.453 1809.95 172.22C1808.59 172.979 1807.04 173.358 1805.28 173.358ZM1828.08 173.435C1826.06 173.426 1824.33 172.893 1822.9 171.837C1821.47 170.78 1820.37 169.241 1819.62 167.222C1818.86 165.202 1818.48 162.768 1818.48 159.922C1818.48 157.084 1818.86 154.659 1819.62 152.648C1820.38 150.636 1821.48 149.102 1822.91 148.045C1824.35 146.989 1826.08 146.46 1828.08 146.46C1830.08 146.46 1831.8 146.993 1833.23 148.058C1834.66 149.115 1835.76 150.649 1836.52 152.661C1837.28 154.663 1837.67 157.084 1837.67 159.922C1837.67 162.777 1837.29 165.214 1836.53 167.234C1835.77 169.246 1834.68 170.784 1833.24 171.849C1831.81 172.906 1830.09 173.435 1828.08 173.435ZM1828.08 170.021C1829.85 170.021 1831.24 169.156 1832.23 167.426C1833.24 165.696 1833.74 163.195 1833.74 159.922C1833.74 157.749 1833.51 155.912 1833.05 154.412C1832.6 152.903 1831.95 151.761 1831.1 150.986C1830.25 150.202 1829.25 149.81 1828.08 149.81C1826.31 149.81 1824.93 150.679 1823.92 152.418C1822.92 154.156 1822.41 156.658 1822.4 159.922C1822.4 162.104 1822.63 163.949 1823.08 165.457C1823.54 166.957 1824.19 168.095 1825.04 168.871C1825.88 169.638 1826.89 170.021 1828.08 170.021ZM1842.56 146.818H1847.35L1855.69 167.17H1856L1864.33 146.818H1869.13V173H1865.37V154.054H1865.12L1857.4 172.962H1854.28L1846.56 154.041H1846.32V173H1842.56V146.818ZM1874.87 173V146.818H1884.46C1886.31 146.818 1887.85 147.125 1889.07 147.739C1890.29 148.344 1891.2 149.166 1891.81 150.206C1892.41 151.237 1892.72 152.401 1892.72 153.696C1892.72 154.787 1892.51 155.707 1892.11 156.457C1891.71 157.199 1891.18 157.795 1890.5 158.247C1889.84 158.69 1889.11 159.014 1888.3 159.219V159.474C1889.17 159.517 1890.02 159.798 1890.85 160.318C1891.68 160.83 1892.37 161.558 1892.92 162.504C1893.47 163.45 1893.74 164.601 1893.74 165.956C1893.74 167.294 1893.42 168.496 1892.79 169.561C1892.17 170.618 1891.21 171.457 1889.9 172.08C1888.6 172.693 1886.93 173 1884.9 173H1874.87ZM1878.82 169.612H1884.52C1886.41 169.612 1887.77 169.246 1888.59 168.513C1889.4 167.78 1889.81 166.864 1889.81 165.764C1889.81 164.937 1889.6 164.179 1889.19 163.489C1888.77 162.798 1888.17 162.249 1887.4 161.839C1886.63 161.43 1885.72 161.226 1884.66 161.226H1878.82V169.612ZM1878.82 158.145H1884.11C1885 158.145 1885.79 157.974 1886.5 157.634C1887.22 157.293 1887.78 156.815 1888.2 156.202C1888.63 155.58 1888.84 154.847 1888.84 154.003C1888.84 152.92 1888.46 152.013 1887.7 151.28C1886.95 150.547 1885.78 150.18 1884.21 150.18H1878.82V158.145Z" fill="white"/>
<path d="M68.7823 139.363H59.3345H59.1458C57.4084 139.363 56 137.954 56 136.217V82.739V82.6496C56 78.6364 58.578 75.0773 62.3911 73.826L108.758 56.5326C109.702 56.1804 110.702 56 111.71 56C112.723 56 113.728 56.1823 114.677 56.5383L160.759 73.826C164.572 75.0773 167.15 78.6364 167.15 82.6496V82.739V136.217V136.306C167.15 137.994 165.782 139.363 164.094 139.363H153.812H153.624C151.886 139.363 150.478 137.954 150.478 136.217V92.1763C150.478 89.2807 148.131 86.9334 145.235 86.9334H144.92H78.2301H77.3912C74.7852 86.9334 72.6726 89.046 72.6726 91.652V136.217C72.6726 137.954 71.2642 139.363 69.5268 139.363H68.7823Z" fill="#DBE3FF"/>
<path d="M144.92 92.1763H78.2301V105.284H144.92V92.1763Z" fill="#DBE3FF"/>
<path d="M144.92 110.527H78.2301V121.012H144.92V110.527Z" fill="#DBE3FF"/>
<path d="M144.92 126.255H78.2301V131.363C78.2301 135.781 81.8118 139.363 86.2301 139.363H136.92C141.339 139.363 144.92 135.781 144.92 131.363V126.255Z" fill="#DBE3FF"/>
<path d="M177.885 94.3561V92.5201H189.333C191.373 92.5201 193.233 92.8081 194.913 93.3841C196.593 93.9601 198.033 94.8001 199.233 95.9041C200.457 97.0081 201.393 98.3521 202.041 99.9361C202.713 101.496 203.049 103.26 203.049 105.228C203.049 107.196 202.713 108.972 202.041 110.556C201.393 112.116 200.457 113.46 199.233 114.588C198.033 115.716 196.593 116.58 194.913 117.18C193.233 117.78 191.373 118.08 189.333 118.08H177.885V116.244H178.317C179.085 116.244 179.733 116.16 180.261 115.992C180.789 115.824 181.053 115.476 181.053 114.948V95.6521C181.053 95.1721 180.789 94.8361 180.261 94.6441C179.733 94.4521 179.085 94.3561 178.317 94.3561H177.885ZM189.261 94.7521H185.553V115.848H189.261C190.629 115.848 191.865 115.608 192.969 115.128C194.073 114.648 195.021 113.952 195.813 113.04C196.605 112.128 197.205 111.024 197.613 109.728C198.021 108.408 198.225 106.908 198.225 105.228C198.225 103.548 198.021 102.06 197.613 100.764C197.205 99.4681 196.605 98.3761 195.813 97.4881C195.021 96.6001 194.073 95.9281 192.969 95.4721C191.865 94.9921 190.629 94.7521 189.261 94.7521ZM218.179 106.992L218.143 108.864C217.087 108.96 216.139 109.104 215.299 109.296C214.459 109.488 213.727 109.716 213.103 109.98C212.479 110.244 211.963 110.544 211.555 110.88C211.171 111.216 210.883 111.6 210.691 112.032C210.499 112.464 210.403 112.944 210.403 113.472C210.403 114.072 210.523 114.576 210.763 114.984C211.003 115.392 211.339 115.716 211.771 115.956C212.203 116.172 212.695 116.28 213.247 116.28C214.015 116.28 214.687 116.1 215.263 115.74C215.863 115.356 216.391 114.84 216.847 114.192C217.303 113.52 217.699 112.728 218.035 111.816L218.143 114.12C217.783 115.008 217.303 115.776 216.703 116.424C216.127 117.072 215.443 117.576 214.651 117.936C213.859 118.272 212.947 118.44 211.915 118.44C210.811 118.44 209.827 118.248 208.963 117.864C208.099 117.48 207.415 116.928 206.911 116.208C206.407 115.464 206.155 114.588 206.155 113.58C206.155 112.596 206.407 111.744 206.911 111.024C207.415 110.28 208.171 109.656 209.179 109.152C210.211 108.624 211.471 108.192 212.959 107.856C214.447 107.52 216.187 107.232 218.179 106.992ZM217.603 118.08V114.372L217.243 114.336V105.192C217.243 104.28 217.111 103.56 216.847 103.032C216.607 102.48 216.247 102.096 215.767 101.88C215.287 101.64 214.687 101.52 213.967 101.52C212.887 101.52 211.999 101.748 211.303 102.204C210.607 102.636 210.043 103.164 209.611 103.788C209.539 103.5 209.515 103.236 209.539 102.996C209.587 102.756 209.683 102.54 209.827 102.348C209.971 102.156 210.151 101.988 210.367 101.844C210.583 101.7 210.823 101.592 211.087 101.52V105.3H207.307V101.556C207.667 101.292 208.171 100.992 208.819 100.656C209.467 100.296 210.259 99.9961 211.195 99.7561C212.131 99.4921 213.187 99.3601 214.363 99.3601C215.323 99.3601 216.235 99.4681 217.099 99.6841C217.963 99.8761 218.719 100.212 219.367 100.692C220.039 101.148 220.555 101.76 220.915 102.528C221.299 103.272 221.491 104.196 221.491 105.3V115.056C221.491 115.368 221.599 115.62 221.815 115.812C222.031 115.98 222.331 116.1 222.715 116.172C223.099 116.244 223.543 116.28 224.047 116.28L224.119 116.316V118.08H217.603ZM224.51 101.844V99.8641H224.69C225.338 99.8641 225.902 99.8161 226.382 99.7201C226.862 99.6241 227.222 99.4441 227.462 99.1801C227.702 98.9161 227.834 98.5441 227.858 98.0641L230.486 99.7201H236.966V101.844H224.51ZM231.854 111.924C231.854 112.932 231.974 113.748 232.214 114.372C232.478 114.972 232.838 115.416 233.294 115.704C233.75 115.968 234.29 116.1 234.914 116.1C235.418 116.1 235.874 116.052 236.282 115.956C236.714 115.836 237.062 115.74 237.326 115.668V117.864C237.11 117.96 236.834 118.044 236.498 118.116C236.186 118.212 235.826 118.284 235.418 118.332C235.034 118.404 234.602 118.44 234.122 118.44C232.946 118.44 231.854 118.248 230.846 117.864C229.838 117.48 229.034 116.82 228.434 115.884C227.834 114.924 227.534 113.616 227.534 111.96V100.26L227.822 100.008L227.894 94.7161H231.854V111.924ZM251.578 106.992L251.542 108.864C250.486 108.96 249.538 109.104 248.698 109.296C247.858 109.488 247.126 109.716 246.502 109.98C245.878 110.244 245.362 110.544 244.954 110.88C244.57 111.216 244.282 111.6 244.09 112.032C243.898 112.464 243.802 112.944 243.802 113.472C243.802 114.072 243.922 114.576 244.162 114.984C244.402 115.392 244.738 115.716 245.17 115.956C245.602 116.172 246.094 116.28 246.646 116.28C247.414 116.28 248.086 116.1 248.662 115.74C249.262 115.356 249.79 114.84 250.246 114.192C250.702 113.52 251.098 112.728 251.434 111.816L251.542 114.12C251.182 115.008 250.702 115.776 250.102 116.424C249.526 117.072 248.842 117.576 248.05 117.936C247.258 118.272 246.346 118.44 245.314 118.44C244.21 118.44 243.226 118.248 242.362 117.864C241.498 117.48 240.814 116.928 240.31 116.208C239.806 115.464 239.554 114.588 239.554 113.58C239.554 112.596 239.806 111.744 240.31 111.024C240.814 110.28 241.57 109.656 242.578 109.152C243.61 108.624 244.87 108.192 246.358 107.856C247.846 107.52 249.586 107.232 251.578 106.992ZM251.002 118.08V114.372L250.642 114.336V105.192C250.642 104.28 250.51 103.56 250.246 103.032C250.006 102.48 249.646 102.096 249.166 101.88C248.686 101.64 248.086 101.52 247.366 101.52C246.286 101.52 245.398 101.748 244.702 102.204C244.006 102.636 243.442 103.164 243.01 103.788C242.938 103.5 242.914 103.236 242.938 102.996C242.986 102.756 243.082 102.54 243.226 102.348C243.37 102.156 243.55 101.988 243.766 101.844C243.982 101.7 244.222 101.592 244.486 101.52V105.3H240.706V101.556C241.066 101.292 241.57 100.992 242.218 100.656C242.866 100.296 243.658 99.9961 244.594 99.7561C245.53 99.4921 246.586 99.3601 247.762 99.3601C248.722 99.3601 249.634 99.4681 250.498 99.6841C251.362 99.8761 252.118 100.212 252.766 100.692C253.438 101.148 253.954 101.76 254.314 102.528C254.698 103.272 254.89 104.196 254.89 105.3V115.056C254.89 115.368 254.998 115.62 255.214 115.812C255.43 115.98 255.73 116.1 256.114 116.172C256.498 116.244 256.942 116.28 257.446 116.28L257.518 116.316V118.08H251.002ZM259.342 94.3561V92.5201H270.79C272.83 92.5201 274.69 92.8081 276.37 93.3841C278.05 93.9601 279.49 94.8001 280.69 95.9041C281.914 97.0081 282.85 98.3521 283.498 99.9361C284.17 101.496 284.506 103.26 284.506 105.228C284.506 107.196 284.17 108.972 283.498 110.556C282.85 112.116 281.914 113.46 280.69 114.588C279.49 115.716 278.05 116.58 276.37 117.18C274.69 117.78 272.83 118.08 270.79 118.08H259.342V116.244H259.774C260.542 116.244 261.19 116.16 261.718 115.992C262.246 115.824 262.51 115.476 262.51 114.948V95.6521C262.51 95.1721 262.246 94.8361 261.718 94.6441C261.19 94.4521 260.542 94.3561 259.774 94.3561H259.342ZM270.718 94.7521H267.01V115.848H270.718C272.086 115.848 273.322 115.608 274.426 115.128C275.53 114.648 276.478 113.952 277.27 113.04C278.062 112.128 278.662 111.024 279.07 109.728C279.478 108.408 279.682 106.908 279.682 105.228C279.682 103.548 279.478 102.06 279.07 100.764C278.662 99.4681 278.062 98.3761 277.27 97.4881C276.478 96.6001 275.53 95.9281 274.426 95.4721C273.322 94.9921 272.086 94.7521 270.718 94.7521ZM292.106 109.008C292.106 110.16 292.238 111.192 292.502 112.104C292.79 112.992 293.186 113.748 293.69 114.372C294.194 114.972 294.794 115.428 295.49 115.74C296.186 116.052 296.966 116.208 297.83 116.208C298.766 116.208 299.57 116.028 300.242 115.668C300.938 115.308 301.526 114.852 302.006 114.3C302.51 113.748 302.93 113.184 303.266 112.608L305.066 114.084C304.586 114.9 303.998 115.644 303.302 116.316C302.606 116.988 301.778 117.516 300.818 117.9C299.858 118.26 298.73 118.44 297.434 118.44C295.562 118.44 293.894 118.056 292.43 117.288C290.966 116.52 289.814 115.428 288.974 114.012C288.158 112.572 287.75 110.892 287.75 108.972C287.75 107.052 288.146 105.372 288.938 103.932C289.73 102.492 290.81 101.376 292.178 100.584C293.546 99.7681 295.082 99.3601 296.786 99.3601C298.154 99.3601 299.354 99.5761 300.386 100.008C301.442 100.44 302.33 101.088 303.05 101.952C303.77 102.792 304.31 103.86 304.67 105.156C305.054 106.428 305.246 107.928 305.246 109.656H291.35L291.314 107.568H301.898L300.926 108.396C300.902 107.172 300.806 106.128 300.638 105.264C300.47 104.4 300.218 103.692 299.882 103.14C299.546 102.588 299.126 102.18 298.622 101.916C298.118 101.652 297.518 101.52 296.822 101.52C296.15 101.52 295.526 101.688 294.95 102.024C294.398 102.336 293.906 102.816 293.474 103.464C293.042 104.088 292.706 104.868 292.466 105.804C292.226 106.74 292.106 107.808 292.106 109.008ZM317.757 126.108H307.533V124.344H307.569C308.073 124.344 308.517 124.308 308.901 124.236C309.285 124.188 309.585 124.068 309.801 123.876C310.041 123.708 310.161 123.456 310.161 123.12V103.068C310.161 102.732 310.077 102.48 309.909 102.312C309.741 102.144 309.489 102.012 309.153 101.916C308.817 101.796 308.385 101.688 307.857 101.592L307.533 101.52V99.7201H314.121V104.292L314.481 104.544V124.02C314.481 124.092 314.625 124.152 314.913 124.2C315.201 124.248 315.537 124.284 315.921 124.308C316.305 124.332 316.653 124.344 316.965 124.344H317.757V126.108ZM320.169 118.44C319.185 118.44 318.309 118.308 317.541 118.044C316.797 117.756 316.101 117.336 315.453 116.784C314.829 116.208 314.229 115.476 313.653 114.588L313.797 111.348C314.277 112.38 314.793 113.256 315.345 113.976C315.897 114.672 316.509 115.2 317.181 115.56C317.877 115.92 318.645 116.1 319.485 116.1C320.277 116.1 320.973 115.932 321.573 115.596C322.173 115.236 322.665 114.732 323.049 114.084C323.457 113.436 323.757 112.668 323.949 111.78C324.141 110.868 324.237 109.86 324.237 108.756C324.237 107.652 324.141 106.668 323.949 105.804C323.757 104.94 323.469 104.208 323.085 103.608C322.701 102.984 322.221 102.516 321.645 102.204C321.069 101.868 320.409 101.7 319.665 101.7C318.801 101.7 318.021 101.904 317.325 102.312C316.629 102.696 315.993 103.272 315.417 104.04C314.841 104.784 314.289 105.696 313.761 106.776L313.653 103.824C314.301 102.792 314.949 101.952 315.597 101.304C316.245 100.656 316.965 100.176 317.757 99.8641C318.549 99.5281 319.449 99.3601 320.457 99.3601C322.113 99.3601 323.565 99.7561 324.813 100.548C326.061 101.316 327.033 102.408 327.729 103.824C328.425 105.216 328.773 106.86 328.773 108.756C328.773 110.652 328.413 112.332 327.693 113.796C326.973 115.236 325.965 116.376 324.669 117.216C323.373 118.032 321.873 118.44 320.169 118.44ZM351.242 108.9C351.242 110.772 350.822 112.428 349.982 113.868C349.166 115.308 348.026 116.436 346.562 117.252C345.098 118.044 343.406 118.44 341.486 118.44C339.566 118.44 337.862 118.044 336.374 117.252C334.91 116.436 333.77 115.308 332.954 113.868C332.138 112.428 331.73 110.772 331.73 108.9C331.73 107.484 331.958 106.2 332.414 105.048C332.87 103.872 333.53 102.864 334.394 102.024C335.282 101.16 336.314 100.5 337.49 100.044C338.69 99.5881 340.022 99.3601 341.486 99.3601C342.926 99.3601 344.234 99.5881 345.41 100.044C346.61 100.5 347.642 101.16 348.506 102.024C349.394 102.864 350.066 103.872 350.522 105.048C351.002 106.2 351.242 107.484 351.242 108.9ZM336.23 108.9C336.23 110.412 336.434 111.732 336.842 112.86C337.274 113.964 337.874 114.816 338.642 115.416C339.434 115.992 340.382 116.28 341.486 116.28C342.59 116.28 343.526 115.992 344.294 115.416C345.062 114.816 345.662 113.964 346.094 112.86C346.526 111.732 346.742 110.412 346.742 108.9C346.742 107.364 346.526 106.044 346.094 104.94C345.662 103.836 345.062 102.996 344.294 102.42C343.526 101.82 342.59 101.52 341.486 101.52C340.382 101.52 339.434 101.82 338.642 102.42C337.874 102.996 337.274 103.836 336.842 104.94C336.434 106.044 336.23 107.364 336.23 108.9ZM352.971 101.844V99.8641H353.151C353.799 99.8641 354.363 99.8161 354.843 99.7201C355.323 99.6241 355.683 99.4441 355.923 99.1801C356.163 98.9161 356.295 98.5441 356.319 98.0641L358.947 99.7201H365.427V101.844H352.971ZM360.315 111.924C360.315 112.932 360.435 113.748 360.675 114.372C360.939 114.972 361.299 115.416 361.755 115.704C362.211 115.968 362.751 116.1 363.375 116.1C363.879 116.1 364.335 116.052 364.743 115.956C365.175 115.836 365.523 115.74 365.787 115.668V117.864C365.571 117.96 365.295 118.044 364.959 118.116C364.647 118.212 364.287 118.284 363.879 118.332C363.495 118.404 363.063 118.44 362.583 118.44C361.407 118.44 360.315 118.248 359.307 117.864C358.299 117.48 357.495 116.82 356.895 115.884C356.295 114.924 355.995 113.616 355.995 111.96V100.26L356.283 100.008L356.355 94.7161H360.315V111.924Z" fill="white"/>
<rect x="1391" y="75" width="611" height="45" rx="22.5" fill="#D9D9D9"/>
<path d="M1391 97.5C1391 85.0736 1401.07 75 1413.5 75H1624V120H1413.5C1401.07 120 1391 109.926 1391 97.5Z" fill="#0ED139"/>
<rect x="2897" y="66" width="243" height="75" rx="17" fill="#428DFF"/>
<path d="M2948.27 115.338V98.054H2951.7V115.338H2948.27ZM2941.35 108.409V104.97H2958.63V108.409H2941.35ZM2979.79 117.435C2978.54 117.435 2977.42 117.205 2976.41 116.744C2975.41 116.276 2974.61 115.598 2974.02 114.712C2973.44 113.825 2973.15 112.739 2973.15 111.452C2973.15 110.344 2973.37 109.432 2973.79 108.716C2974.22 108 2974.79 107.433 2975.52 107.016C2976.24 106.598 2977.05 106.283 2977.95 106.07C2978.84 105.857 2979.75 105.695 2980.68 105.584C2981.86 105.447 2982.81 105.337 2983.55 105.251C2984.28 105.158 2984.81 105.009 2985.14 104.804C2985.48 104.599 2985.64 104.267 2985.64 103.807V103.717C2985.64 102.601 2985.33 101.736 2984.7 101.122C2984.07 100.509 2983.15 100.202 2981.91 100.202C2980.62 100.202 2979.61 100.487 2978.87 101.058C2978.13 101.621 2977.63 102.247 2977.35 102.938L2973.75 102.119C2974.18 100.926 2974.8 99.9631 2975.62 99.2301C2976.45 98.4886 2977.4 97.9517 2978.47 97.6193C2979.55 97.2784 2980.67 97.108 2981.86 97.108C2982.64 97.108 2983.47 97.2017 2984.35 97.3892C2985.24 97.5682 2986.06 97.9006 2986.83 98.3864C2987.61 98.8722 2988.24 99.5668 2988.74 100.47C2989.23 101.365 2989.48 102.528 2989.48 103.96V117H2985.75V114.315H2985.59C2985.34 114.81 2984.97 115.295 2984.48 115.773C2983.99 116.25 2983.35 116.646 2982.57 116.962C2981.8 117.277 2980.87 117.435 2979.79 117.435ZM2980.62 114.366C2981.68 114.366 2982.58 114.158 2983.33 113.74C2984.09 113.322 2984.66 112.777 2985.06 112.104C2985.46 111.422 2985.66 110.693 2985.66 109.918V107.386C2985.52 107.523 2985.26 107.651 2984.86 107.77C2984.48 107.881 2984.04 107.979 2983.55 108.064C2983.05 108.141 2982.57 108.213 2982.1 108.281C2981.63 108.341 2981.24 108.392 2980.93 108.435C2980.18 108.528 2979.51 108.686 2978.89 108.908C2978.29 109.129 2977.8 109.449 2977.44 109.866C2977.08 110.276 2976.9 110.821 2976.9 111.503C2976.9 112.449 2977.25 113.165 2977.95 113.651C2978.65 114.128 2979.54 114.366 2980.62 114.366ZM3001.92 117.384C3000.34 117.384 2998.92 116.979 2997.68 116.169C2996.44 115.351 2995.47 114.187 2994.76 112.679C2994.06 111.162 2993.71 109.342 2993.71 107.22C2993.71 105.098 2994.07 103.283 2994.77 101.774C2995.49 100.266 2996.47 99.1108 2997.71 98.3097C2998.96 97.5085 3000.37 97.108 3001.95 97.108C3003.16 97.108 3004.14 97.3125 3004.89 97.7216C3005.64 98.1222 3006.22 98.5909 3006.62 99.1278C3007.04 99.6648 3007.37 100.138 3007.6 100.547H3007.83V90.8182H3011.65V117H3007.92V113.945H3007.6C3007.37 114.362 3007.03 114.839 3006.6 115.376C3006.17 115.913 3005.59 116.382 3004.84 116.783C3004.09 117.183 3003.11 117.384 3001.92 117.384ZM3002.76 114.124C3003.86 114.124 3004.79 113.834 3005.55 113.254C3006.32 112.666 3006.9 111.852 3007.29 110.812C3007.69 109.773 3007.89 108.562 3007.89 107.182C3007.89 105.818 3007.69 104.625 3007.3 103.602C3006.91 102.58 3006.34 101.783 3005.58 101.212C3004.82 100.641 3003.88 100.355 3002.76 100.355C3001.61 100.355 3000.65 100.653 2999.89 101.25C2999.12 101.847 2998.54 102.661 2998.15 103.692C2997.77 104.723 2997.57 105.886 2997.57 107.182C2997.57 108.494 2997.77 109.675 2998.16 110.723C2998.55 111.771 2999.13 112.602 2999.9 113.216C3000.68 113.821 3001.63 114.124 3002.76 114.124ZM3024.46 117.384C3022.87 117.384 3021.46 116.979 3020.21 116.169C3018.98 115.351 3018 114.187 3017.3 112.679C3016.6 111.162 3016.25 109.342 3016.25 107.22C3016.25 105.098 3016.6 103.283 3017.31 101.774C3018.03 100.266 3019.01 99.1108 3020.25 98.3097C3021.49 97.5085 3022.9 97.108 3024.48 97.108C3025.7 97.108 3026.68 97.3125 3027.42 97.7216C3028.17 98.1222 3028.75 98.5909 3029.16 99.1278C3029.58 99.6648 3029.9 100.138 3030.13 100.547H3030.36V90.8182H3034.18V117H3030.45V113.945H3030.13C3029.9 114.362 3029.57 114.839 3029.13 115.376C3028.71 115.913 3028.12 116.382 3027.37 116.783C3026.62 117.183 3025.65 117.384 3024.46 117.384ZM3025.3 114.124C3026.4 114.124 3027.33 113.834 3028.09 113.254C3028.85 112.666 3029.43 111.852 3029.82 110.812C3030.23 109.773 3030.43 108.562 3030.43 107.182C3030.43 105.818 3030.23 104.625 3029.84 103.602C3029.45 102.58 3028.87 101.783 3028.11 101.212C3027.35 100.641 3026.42 100.355 3025.3 100.355C3024.15 100.355 3023.19 100.653 3022.42 101.25C3021.66 101.847 3021.08 102.661 3020.68 103.692C3020.3 104.723 3020.11 105.886 3020.11 107.182C3020.11 108.494 3020.31 109.675 3020.7 110.723C3021.09 111.771 3021.67 112.602 3022.44 113.216C3023.21 113.821 3024.17 114.124 3025.3 114.124ZM3058.51 97.3636V100.432H3047.42V97.3636H3058.51ZM3050.46 117V95.0881C3050.46 93.8608 3050.73 92.8423 3051.26 92.0327C3051.8 91.2145 3052.51 90.6051 3053.4 90.2045C3054.29 89.7955 3055.25 89.5909 3056.29 89.5909C3057.06 89.5909 3057.71 89.6548 3058.26 89.7827C3058.8 89.902 3059.21 90.0128 3059.47 90.1151L3058.58 93.2088C3058.4 93.1577 3058.17 93.098 3057.89 93.0298C3057.6 92.9531 3057.26 92.9148 3056.86 92.9148C3055.93 92.9148 3055.27 93.1449 3054.87 93.6051C3054.48 94.0653 3054.28 94.7301 3054.28 95.5994V117H3050.46ZM3062.46 117V97.3636H3066.28V117H3062.46ZM3064.39 94.3338C3063.72 94.3338 3063.15 94.1122 3062.67 93.669C3062.2 93.2173 3061.97 92.6804 3061.97 92.0582C3061.97 91.4276 3062.2 90.8906 3062.67 90.4474C3063.15 89.9957 3063.72 89.7699 3064.39 89.7699C3065.05 89.7699 3065.62 89.9957 3066.09 90.4474C3066.56 90.8906 3066.8 91.4276 3066.8 92.0582C3066.8 92.6804 3066.56 93.2173 3066.09 93.669C3065.62 94.1122 3065.05 94.3338 3064.39 94.3338ZM3075.24 90.8182V117H3071.42V90.8182H3075.24ZM3088.85 117.396C3086.91 117.396 3085.25 116.983 3083.85 116.156C3082.46 115.321 3081.39 114.149 3080.63 112.641C3079.88 111.124 3079.5 109.347 3079.5 107.31C3079.5 105.298 3079.88 103.526 3080.63 101.991C3081.39 100.457 3082.44 99.2599 3083.8 98.3991C3085.16 97.5384 3086.76 97.108 3088.58 97.108C3089.69 97.108 3090.76 97.2912 3091.8 97.6577C3092.84 98.0241 3093.78 98.5994 3094.6 99.3835C3095.43 100.168 3096.08 101.186 3096.56 102.439C3097.04 103.683 3097.27 105.196 3097.27 106.977V108.332H3081.66V105.469H3093.53C3093.53 104.463 3093.32 103.572 3092.91 102.797C3092.51 102.013 3091.93 101.395 3091.19 100.943C3090.46 100.491 3089.59 100.266 3088.61 100.266C3087.53 100.266 3086.59 100.53 3085.79 101.058C3085 101.578 3084.39 102.26 3083.95 103.104C3083.53 103.939 3083.31 104.847 3083.31 105.827V108.064C3083.31 109.376 3083.54 110.493 3084 111.413C3084.47 112.334 3085.12 113.037 3085.96 113.523C3086.8 114 3087.77 114.239 3088.89 114.239C3089.61 114.239 3090.27 114.136 3090.87 113.932C3091.47 113.719 3091.98 113.403 3092.42 112.986C3092.85 112.568 3093.18 112.053 3093.41 111.439L3097.03 112.091C3096.74 113.156 3096.22 114.089 3095.47 114.891C3094.73 115.683 3093.8 116.301 3092.67 116.744C3091.56 117.179 3090.28 117.396 3088.85 117.396Z" fill="white"/>
<rect x="3203.5" y="75.5" width="117" height="57" rx="28.5" fill="#272525" stroke="#8D8D8D" stroke-width="3"/>
<circle cx="3291" cy="104" r="25" fill="#C8C8C8"/>
<defs>
<filter id="filter0_d_64_107" x="-2" y="0" width="3398" height="211.5" filterUnits="userSpaceOnUse" color-interpolation-filters="sRGB">
<feFlood flood-opacity="0" result="BackgroundImageFix"/>
<feColorMatrix in="SourceAlpha" type="matrix" values="0 0 0 0 0 0 0 0 0 0 0 0 0 0 0 0 0 0 127 0" result="hardAlpha"/>
<feOffset dy="2"/>
<feGaussianBlur stdDeviation="1"/>
<feComposite in2="hardAlpha" operator="out"/>
<feColorMatrix type="matrix" values="0 0 0 0 0 0 0 0 0 0 0 0 0 0 0 0 0 0 0.75 0"/>
<feBlend mode="normal" in2="BackgroundImageFix" result="effect1_dropShadow_64_107"/>
<feBlend mode="normal" in="SourceGraphic" in2="effect1_dropShadow_64_107" result="shape"/>
</filter>
</defs>
</svg>
