<svg width="200" height="150" viewBox="0 0 200 150" fill="none" xmlns="http://www.w3.org/2000/svg">
<path d="M23 150H6H5.66037C2.53424 150 0 147.466 0 144.34V48.1132V47.9524C0 40.7311 4.63873 34.3269 11.5 32.0755L94.9304 0.95838C96.6298 0.324576 98.4288 0 100.242 0C102.066 0 103.875 0.328082 105.582 0.968569L188.5 32.0755C195.361 34.3269 200 40.7311 200 47.9524V48.1132V144.34V144.5C200 147.538 197.538 150 194.5 150H176H175.66C172.534 150 170 147.466 170 144.34V65.0943C170 59.8841 165.776 55.6604 160.566 55.6604H160H40H38.4906C33.8014 55.6604 30 59.4617 30 64.1509V144.34C30 147.466 27.4658 150 24.3396 150H23Z" fill="#DBE3FF"/>
<path d="M160 65.0944H40V88.6793H160V65.0944Z" fill="#DBE3FF"/>
<path d="M160 98.1132H40V116.981H160V98.1132Z" fill="#DBE3FF"/>
<path d="M160 126.415H40V142C40 146.418 43.5817 150 48 150H152C156.418 150 160 146.418 160 142V126.415Z" fill="#DBE3FF"/>
</svg>
