<?xml version="1.0" encoding="utf-8"?>
<!-- Generator: Adobe Illustrator 25.2.0, SVG Export Plug-In . SVG Version: 6.00 Build 0)  -->
<svg version="1.1" xmlns="http://www.w3.org/2000/svg" xmlns:xlink="http://www.w3.org/1999/xlink" x="0px" y="0px"
	 viewBox="0 0 128 128" style="enable-background:new 0 0 128 128;" xml:space="preserve">
<style type="text/css">
	.st0{display:none;}
	.st1{display:inline;}
	.st2{fill:#93278F;}
	.st3{display:inline;fill:none;stroke:#000000;stroke-miterlimit:10;}
	.st4{display:inline;fill:none;}
	.st5{fill:none;stroke:#000000;stroke-miterlimit:10;}
	.st6{fill:none;stroke:#000000;stroke-width:0.75;stroke-miterlimit:10;}
	.st7{fill:#29ABE2;}
	.st8{fill:none;stroke:#F2F2F2;stroke-miterlimit:10;}
	.st9{fill:none;stroke:#F2F2F2;stroke-width:0.75;stroke-miterlimit:10;}
</style>
<g id="Vrstva_1" class="st0">
	<g class="st1">
		
			<image style="overflow:visible;opacity:0.4;" width="659" height="659" xlink:href="C5A35D7F.png"  transform="matrix(0.24 0 0 0.24 -11.16 -11.16)">
		</image>
		<g>
			<circle class="st2" cx="64" cy="64" r="64"/>
		</g>
	</g>
	
		<image style="overflow:visible;" width="381" height="316" xlink:href="C5A35D79.jpg"  transform="matrix(0.2911 0 0 0.2911 8 14)">
	</image>
	<rect x="29" y="52.5" class="st3" width="5" height="41"/>
	<rect x="93.5" y="52.8" class="st3" width="5" height="41"/>
	<line class="st4" x1="34" y1="55" x2="93" y2="55"/>
	<line class="st4" x1="34" y1="55" x2="93" y2="55"/>
	<line class="st3" x1="34" y1="55" x2="94" y2="55"/>
	<line class="st3" x1="34" y1="58" x2="94" y2="58"/>
	<line class="st3" x1="34" y1="61" x2="94" y2="61"/>
	<line class="st3" x1="34" y1="64" x2="94" y2="64"/>
	<g class="st1">
		<path class="st5" d="M46.3,83.5h-6.8h-1.8c-0.4,0-0.7,0.3-0.7,0.7v8.7c0,0.4,0.3,0.7,0.7,0.7h8.7c0.4,0,0.7-0.3,0.7-0.7v-8.7
			C47,83.8,46.7,83.5,46.3,83.5z"/>
		<path class="st6" d="M40,84v-0.5h4V86c0,0.3-0.3,0.5-0.7,0.5h-2.5c-0.4,0-0.7-0.2-0.7-0.5V84"/>
	</g>
	<polygon class="st3" points="64,23.5 25.2,52.5 102.8,52.5 	"/>
	<g class="st1">
		<path class="st5" d="M58.5,83.5h-6.8h-1.8c-0.4,0-0.7,0.3-0.7,0.7v8.7c0,0.4,0.3,0.7,0.7,0.7h8.7c0.4,0,0.7-0.3,0.7-0.7v-8.7
			C59.2,83.8,58.9,83.5,58.5,83.5z"/>
		<path class="st6" d="M52.2,84v-0.5h4V86c0,0.3-0.3,0.5-0.7,0.5h-2.5c-0.4,0-0.7-0.2-0.7-0.5V84"/>
	</g>
	<g class="st1">
		<path class="st5" d="M70.5,83.5h-6.8h-1.8c-0.4,0-0.7,0.3-0.7,0.7v8.7c0,0.4,0.3,0.7,0.7,0.7h8.7c0.4,0,0.7-0.3,0.7-0.7v-8.7
			C71.2,83.8,70.9,83.5,70.5,83.5z"/>
		<path class="st6" d="M64.2,84v-0.5h4V86c0,0.3-0.3,0.5-0.7,0.5h-2.5c-0.4,0-0.7-0.2-0.7-0.5V84"/>
	</g>
	<g class="st1">
		<path class="st5" d="M46.3,73.5h-6.8h-1.8c-0.4,0-0.7,0.3-0.7,0.7v8.7c0,0.4,0.3,0.7,0.7,0.7h8.7c0.4,0,0.7-0.3,0.7-0.7v-8.7
			C47,73.8,46.7,73.5,46.3,73.5z"/>
		<path class="st6" d="M40,74v-0.5h4V76c0,0.3-0.3,0.5-0.7,0.5h-2.5c-0.4,0-0.7-0.2-0.7-0.5V74"/>
	</g>
	<g class="st1">
		<path class="st5" d="M58.5,73.6h-6.8h-1.8c-0.4,0-0.7,0.3-0.7,0.7v8.7c0,0.4,0.3,0.7,0.7,0.7h8.7c0.4,0,0.7-0.3,0.7-0.7v-8.7
			C59.2,73.8,58.9,73.6,58.5,73.6z"/>
		<path class="st6" d="M52.2,74.1v-0.5h4V76c0,0.3-0.3,0.5-0.7,0.5h-2.5c-0.4,0-0.7-0.2-0.7-0.5V74.1"/>
	</g>
</g>
<g id="white">
	<g>
		
			<image style="overflow:visible;opacity:0.4;" width="659" height="659" xlink:href="C5A35D78.png"  transform="matrix(0.24 0 0 0.24 -11.16 -11.16)">
		</image>
		<g>
			<circle class="st7" cx="64" cy="64" r="64"/>
		</g>
	</g>
	<g>
		<rect x="22.8" y="50.9" class="st8" width="6" height="49.2"/>
		<rect x="100.2" y="51.2" class="st8" width="6" height="49.2"/>
		<line class="st8" x1="28.8" y1="53.9" x2="99.6" y2="53.9"/>
		<line class="st8" x1="28.8" y1="53.9" x2="99.6" y2="53.9"/>
		<line class="st8" x1="28.8" y1="53.9" x2="100.8" y2="53.9"/>
		<line class="st8" x1="28.8" y1="57.5" x2="100.8" y2="57.5"/>
		<line class="st8" x1="28.8" y1="61.1" x2="100.8" y2="61.1"/>
		<line class="st8" x1="28.8" y1="64.7" x2="100.8" y2="64.7"/>
		<g>
			<path class="st8" d="M43.6,88.1h-8.2h-2.2c-0.4,0-0.8,0.4-0.8,0.8v10.4c0,0.4,0.4,0.8,0.8,0.8h10.4c0.4,0,0.8-0.4,0.8-0.8V88.9
				C44.4,88.4,44.1,88.1,43.6,88.1z"/>
			<path class="st9" d="M36,88.7v-0.6h4.8V91c0,0.4-0.4,0.7-0.9,0.7h-3.1c-0.5,0-0.9-0.3-0.9-0.7V88.7"/>
		</g>
		<polygon class="st8" points="64.8,16.1 18.2,50.8 111.4,50.8 		"/>
		<g>
			<path class="st8" d="M58.2,88.1H50h-2.2c-0.4,0-0.8,0.4-0.8,0.8v10.4c0,0.4,0.4,0.8,0.8,0.8h10.4c0.4,0,0.8-0.4,0.8-0.8V88.9
				C59,88.4,58.7,88.1,58.2,88.1z"/>
			<path class="st9" d="M50.6,88.7v-0.6h4.8V91c0,0.4-0.4,0.7-0.9,0.7h-3.1c-0.5,0-0.9-0.3-0.9-0.7V88.7"/>
		</g>
		<g>
			<path class="st8" d="M72.6,88.1h-8.2h-2.2c-0.4,0-0.8,0.4-0.8,0.8v10.4c0,0.4,0.4,0.8,0.8,0.8h10.4c0.4,0,0.8-0.4,0.8-0.8V88.9
				C73.4,88.4,73.1,88.1,72.6,88.1z"/>
			<path class="st9" d="M65,88.7v-0.6h4.8V91c0,0.4-0.4,0.7-0.9,0.7h-3.1c-0.5,0-0.9-0.3-0.9-0.7V88.7"/>
		</g>
		<g>
			<path class="st8" d="M43.6,76.1h-8.2h-2.2c-0.4,0-0.8,0.4-0.8,0.8v10.4c0,0.4,0.4,0.8,0.8,0.8h10.4c0.4,0,0.8-0.4,0.8-0.8V76.9
				C44.4,76.4,44.1,76.1,43.6,76.1z"/>
			<path class="st9" d="M36,76.7v-0.6h4.8V79c0,0.4-0.4,0.7-0.9,0.7h-3.1c-0.5,0-0.9-0.3-0.9-0.7V76.7"/>
		</g>
		<g>
			<path class="st8" d="M58.2,76.1H50h-2.2c-0.4,0-0.8,0.4-0.8,0.8v10.4c0,0.4,0.4,0.8,0.8,0.8h10.4c0.4,0,0.8-0.4,0.8-0.8V76.9
				C59,76.5,58.7,76.1,58.2,76.1z"/>
			<path class="st9" d="M50.6,76.7v-0.6h4.8v2.9c0,0.4-0.4,0.7-0.9,0.7h-3.1c-0.5,0-0.9-0.3-0.9-0.7V76.7"/>
		</g>
	</g>
</g>
</svg>
