<?xml version="1.0" encoding="utf-8"?>
<!-- Generator: Adobe Illustrator 25.2.0, SVG Export Plug-In . SVG Version: 6.00 Build 0)  -->
<svg version="1.1" id="Vrstva_1" xmlns="http://www.w3.org/2000/svg" xmlns:xlink="http://www.w3.org/1999/xlink" x="0px" y="0px"
	 viewBox="0 0 512 512" style="enable-background:new 0 0 512 512;" xml:space="preserve">
<style type="text/css">
	.st0{fill:#FFFFFF;}
</style>
<path class="st0" d="M307.2,490.6l0.8,2c4.8,2.3,10.2,3.6,15.4,4.8c5.2,1.2,10.4,2.5,15.8,2.8c10.1,0.6,21.1-1,30.4-5.4
	c-2.8-0.1-4.6-0.2-4.6-0.4c0-0.2,0.8-2,1.7-4l1.7-3.5h16.6v-65.5l-5.3-14.5c-3-8-8.9-23.8-13.3-35.2l-7.9-20.8h-69.5v64h-8v-112
	h-128v112h-24v72h12.5c6.9,0,12.5,0.2,12.5,0.4c0,0.2,0.7,2,1.5,4l1.5,3.5c6.9,6.7,17.4,8.9,27.3,9.7c3.2-0.2,6.5-0.6,9.6-1.4
	c5.4-1.3,10.5-3.2,15.9-4.4c0.4-2.5,1.7-4,3.6-5c0.2-0.8,0.6-1.9,1.2-3.2l1.8-3.6h89.4L307.2,490.6z M348,490
	c-6.5,6.5-15.7,6.5-22.2,0c-12.4-12.3,1.3-32.5,17.4-25.7C353.5,468.6,356,482,348,490z M358.6,397.4c1.3,3.3,2.6,6.7,2.9,7.7
	c0.5,1.7-0.6,1.8-16,1.8h-16.6v-16.1l27.4,0.6L358.6,397.4z M208.9,318.9h16v24h-16V318.9z M168.9,318.9h24v40h48v-40h24v96h-96
	V318.9z M196,490c-6.5,6.5-15.7,6.5-22.2,0c-12.4-12.3,1.3-32.5,17.4-25.7C201.5,468.6,204,482,196,490z M216.3,470.9l-2.4-5.2
	c-2.9-6.4-8.9-12.6-15.5-15.8c-7.2-3.5-19.8-3.5-27,0c-6.6,3.2-12.6,9.4-15.5,15.8c-2.3,5.1-2.4,5.2-6.7,5.2h-4.3v-40h160v-64h42.6
	l1.2,3.3c0.7,1.8,1.2,3.6,1.2,4c0,0.4-7.2,0.7-16,0.7c-22.2,0-21-1.4-21,24c0,18.9,0,19.1,2.5,21.5l2.4,2.5h51.1l-0.1,24.2v24.3
	l-2.7-5.5c-3.3-6.8-9.2-12.8-15.7-16c-7.2-3.5-19.8-3.5-27,0c-6.6,3.2-12.6,9.4-15.5,15.8l-2.4,5.2H216.3z"/>
<path class="st0" d="M471,115.9C469.7,113.5,259,8,255.8,8.1c-1.3,0-51.5,23.8-111.7,52.8c-60.2,29-110,53.6-110.7,54.6
	C32.2,117.1,32,148,32,302.7v170.8c5.3-0.2,10.7-0.4,16-0.5l0.2-166.6l0.3-181.6l103.7-49.9L256,25l200,100v211h16V226.9
	C472,152.8,471.7,117.2,471,115.9z"/>
<path class="st0" d="M88,192v179.8c5.3,0,10.6,0.1,16,0.2c0-0.2,0-0.4,0-0.6v-4.2c-0.1-0.4,0-0.9,0-1.3v-94h304v64h16V192H88z
	 M408,256H104v-16h304V256z M408,224H104v-16h304V224z"/>
<path class="st0" d="M224.9,394.9v4h4h4v-4v-4h-4h-4V394.9z"/>
<path class="st0" d="M240.9,394.9v4h4h4v-4v-4h-4h-4V394.9z"/>
<path class="st0" d="M179.4,473.4c-5,4.9-1.5,13.5,5.5,13.5c4.1,0,8-3.9,8-8s-3.9-8-8-8C183,470.9,180.9,471.8,179.4,473.4z"/>
<path class="st0" d="M331.4,473.4c-5,4.9-1.5,13.5,5.5,13.5c4.1,0,8-3.9,8-8s-3.9-8-8-8C335,470.9,332.9,471.8,331.4,473.4z"/>
<path class="st0" d="M120,144v32h136h136v-32v-32H256H120V144z M376,144v16H256H136v-16v-16h120h120V144z"/>
<path class="st0" d="M104,497.5V363.6H88v133.3C93.3,496.5,98.8,496.4,104,497.5z"/>
<path class="st0" d="M424.1,499.6V330.6h-16v168.2C413.4,498.3,418.9,498.2,424.1,499.6z"/>
<path class="st0" d="M472.1,496.2V334.1h-16v161.4C461.4,495,466.8,494.9,472.1,496.2z"/>
<path class="st0" d="M48,498.4V364.5H32v133.3C37.3,497.4,42.8,497.3,48,498.4z"/>
<path class="st0" d="M250.9,492.9l-242,0l0,16l240.9,0C249.2,503.6,249,498.1,250.9,492.9z"/>
<path class="st0" d="M242.6,493l242,0l0,16l-240.9,0C244.4,503.7,244.5,498.2,242.6,493z"/>
</svg>
