<svg id="Layer_1" data-name="Layer 1" xmlns="http://www.w3.org/2000/svg" viewBox="0 0 122.88 101.15"><defs><style>.cls-1{fill-rule:evenodd;}</style></defs><title>warehousing</title><path class="cls-1" d="M9.44,27.5H78.26V69.15H81.6V29.1h5.6c0-2.58,0-5.17,0-7.75A3.53,3.53,0,0,0,86.77,19a3.4,3.4,0,0,0-1.87-1.24h0c-.26-.11-.58-.23-.94-.4h0L47.47,1.72l-1.3-.58h0C44.46.36,43.64,0,42.56,0a7.54,7.54,0,0,0-3.2,1.05l-1.76.82h0L4.21,16.25h0c-.54.24-1,.44-1.43.6a4.28,4.28,0,0,0-2.21,1.4c-.57.8-.56,1.52-.55,3V29.1H6.1v55H29.24V80.78H9.44V27.5Zm80,21.89h15.38c3.81,0,2.91-.45,5,2.7l10.7,15.21c2.24,3.31,2.27,2.6,2.27,6.57V87a7.73,7.73,0,0,1-7.71,7.71H113.6a11.27,11.27,0,0,0,.2-2.11,10.95,10.95,0,0,0-21.89,0,10.49,10.49,0,0,0,.21,2.11H66.62a11.27,11.27,0,0,0,.2-2.11,10.95,10.95,0,0,0-21.89,0,10.49,10.49,0,0,0,.21,2.11H43.31a7.11,7.11,0,0,1-7.08-7.08V76.13H89.48V49.39ZM102.86,84a8.6,8.6,0,1,1-8.61,8.6,8.6,8.6,0,0,1,8.61-8.6Zm-47,0a8.6,8.6,0,1,1-8.6,8.6,8.6,8.6,0,0,1,8.6-8.6Zm0,6a2.55,2.55,0,1,1-2.54,2.55A2.55,2.55,0,0,1,55.87,90Zm47-.06a2.61,2.61,0,1,1-2.61,2.61,2.61,2.61,0,0,1,2.61-2.61ZM99.54,55.61H102l10.44,13.93v4.23a1.87,1.87,0,0,1-1.86,1.87h-11a1.92,1.92,0,0,1-1.91-1.92V57.52a1.92,1.92,0,0,1,1.91-1.91Zm-84.1-19H71.77A1.22,1.22,0,0,1,73,37.78V69.15H56.07V65.28H45.61v3.87H42.12V65.28H31.66v5.57a7,7,0,0,0-2.42,5.28v.36H15.44a1.23,1.23,0,0,1-1.23-1.22V37.73a1.19,1.19,0,0,1,1.23-1.17Zm2.27,28.72H28.17v7.86H17.71V65.28Zm14-21.48H42.12v7.86H31.66V43.8Zm-13.95,0H28.17v7.86H17.71V43.8Zm27.9,10.74H56.07V62.4H45.61V54.54Zm-13.95,0H42.12V62.4H31.66V54.54Zm-13.95,0H28.17V62.4H17.71V54.54Zm25.71-45,9,11.74H34.78L43.42,9.56Z"/></svg>